<?xml version="1.0" encoding="utf-8"?>
<!-- Generator: Adobe Illustrator 24.3.0, SVG Export Plug-In . SVG Version: 6.00 Build 0)  -->
<svg version="1.1" id="Layer_1" xmlns="http://www.w3.org/2000/svg" xmlns:xlink="http://www.w3.org/1999/xlink" x="0px" y="0px"
	 viewBox="0 0 409.17 107.34" style="enable-background:new 0 0 409.17 107.34;" xml:space="preserve">
<style type="text/css">
	.st0{fill:#F7931E;}
	.st1{fill:#333333;}
</style>
<g>
	<path class="st0" d="M43.43,6.57c23.11,0,38.82,15.6,38.82,38.38c0,22.79-15.71,38.38-38.82,38.38c-23.01,0-38.82-15.6-38.82-38.38
		C4.6,22.16,20.42,6.57,43.43,6.57z M43.43,68.29c13.05,0,22.01-9.51,22.01-23.34c0-13.83-8.96-23.34-22.01-23.34
		s-22.01,9.51-22.01,23.34C21.42,58.77,30.38,68.29,43.43,68.29z"/>
	<path class="st0" d="M129.61,35.44c0,4.65-3.1,7.52-7.52,7.52c-9.62,0-15.04,4.31-15.04,15.82v15.81c0,4.98-2.88,8.07-7.63,8.07
		c-4.64,0-7.52-3.1-7.52-8.07V36.21c0-4.98,2.88-7.96,7.52-7.96c4.65,0,7.52,2.88,7.63,7.52h0.22c3.1-5.2,8.07-7.85,14.82-7.85
		C126.51,27.91,129.61,30.68,129.61,35.44z"/>
	<path class="st0" d="M188.35,11.99v62.6c0,4.98-2.88,8.07-7.63,8.07c-3.98,0-6.75-2.32-7.41-6.19h-0.22
		c-3.76,4.42-9.4,6.86-16.48,6.86c-15.37,0-25.55-10.95-25.55-27.87c0-16.92,10.18-27.87,25.55-27.87c7.08,0,12.72,2.44,16.37,6.75
		h0.22V11.99c0-4.98,2.88-8.07,7.52-8.07C185.47,3.91,188.35,7.01,188.35,11.99z M173.2,55.46c0-8.19-5.64-14.05-13.49-14.05
		c-7.74,0-13.16,5.64-13.16,14.05c0,8.29,5.42,14.05,13.16,14.05C167.56,69.5,173.2,63.64,173.2,55.46z"/>
	<path class="st0" d="M227.19,83.33c-17.59,0-29.31-11.28-29.31-27.87c0-16.59,11.72-27.87,28.76-27.87
		c15.26,0,27.1,11.06,27.1,23.78v0.88c0,4.76-3.1,7.85-7.74,7.85h-32.63c1.66,6.3,6.64,10.18,13.83,10.18
		c4.75,0,8.18-1.44,11.5-4.53c1.33-1.33,3.1-2.1,4.98-2.1c3.98,0,6.64,2.54,6.64,6.53c0,1.66-0.55,3.1-1.55,4.42
		C243.89,80.23,236.48,83.33,227.19,83.33z M213.36,49.7h25.99c-1.21-5.53-6.41-9.07-12.72-9.07
		C220.11,40.64,214.58,44.17,213.36,49.7z"/>
	<path class="st0" d="M300.09,35.44c0,4.65-3.1,7.52-7.52,7.52c-9.62,0-15.04,4.31-15.04,15.82v15.81c0,4.98-2.88,8.07-7.63,8.07
		c-4.64,0-7.52-3.1-7.52-8.07V36.21c0-4.98,2.88-7.96,7.52-7.96c4.65,0,7.52,2.88,7.63,7.52h0.22c3.1-5.2,8.07-7.85,14.82-7.85
		C296.99,27.91,300.09,30.68,300.09,35.44z"/>
	<path class="st0" d="M344.23,35.44c0,4.65-3.1,7.52-7.52,7.52c-9.62,0-15.04,4.31-15.04,15.82v15.81c0,4.98-2.88,8.07-7.63,8.07
		c-4.64,0-7.52-3.1-7.52-8.07V36.21c0-4.98,2.88-7.96,7.52-7.96c4.65,0,7.52,2.88,7.63,7.52h0.22c3.1-5.2,8.07-7.85,14.82-7.85
		C341.14,27.91,344.23,30.68,344.23,35.44z"/>
	<path class="st0" d="M402.97,36.21v38.38c0,4.98-2.88,8.07-7.63,8.07c-3.98,0-6.75-2.32-7.41-6.19h-0.22
		c-3.76,4.42-9.4,6.86-16.48,6.86c-15.37,0-25.55-10.95-25.55-27.87c0-16.92,10.18-27.87,25.55-27.87c7.08,0,12.72,2.44,16.48,6.86
		h0.22c0.66-3.98,3.43-6.19,7.41-6.19C400.1,28.25,402.97,31.23,402.97,36.21z M387.82,55.46c0-8.19-5.64-14.05-13.49-14.05
		c-7.74,0-13.16,5.64-13.16,14.05c0,8.29,5.42,14.05,13.16,14.05C382.18,69.5,387.82,63.64,387.82,55.46z"/>
</g>
<circle class="st1" cx="43.43" cy="43.62" r="11.91"/>
<path class="st0" d="M12.56,69.5l25.32,28.11c2.96,3.29,8.12,3.29,11.09,0L74.33,69.5"/>
</svg>
